<?xml version="1.0" encoding="UTF-8"?><svg id="Layer_1" xmlns="http://www.w3.org/2000/svg" viewBox="0 0 501.68 149.71"><defs><style>.cls-1{fill:#4a90e2;}.cls-1,.cls-2{stroke-width:0px;}.cls-2{fill:#a0d468;}</style></defs><path class="cls-2" d="m311.38,64.06c0-.69,0-1.06,0-1.44,0-5.24.03-10.48-.02-15.72-.01-1.04.32-1.27,1.31-1.26,3.91.06,7.82.04,11.73,0,.8,0,1.01.24,1.01,1.02-.02,17.71-.02,35.42,0,53.13,0,.8-.27,1-1.03.99-3.81-.03-7.61-.03-11.42,0-.75,0-1-.23-.96-.96.05-.96.01-1.93.01-3.11-.97.76-1.6,1.54-2.45,2.07-2.39,1.52-4.99,2.28-7.84,2.47-3.95.27-7.72-.27-11.2-2.15-5.6-3.03-8.9-7.75-10.02-13.96-.76-4.22-.66-8.43.87-12.46,2.8-7.38,8.24-11.58,16.15-12.6,3.41-.44,6.73-.17,9.89,1.26,1.38.62,2.59,1.5,3.95,2.71Zm.04,16.67c0-.21,0-.42,0-.63.08-4.73-3.33-9.73-9.57-8.89-2.78.37-4.84,1.76-6.17,4.18-1.18,2.16-1.25,4.51-1.01,6.9.21,2.11.96,3.97,2.44,5.53,2.08,2.19,4.75,2.66,7.56,2.19,1.96-.32,3.67-1.33,4.9-2.99,1.39-1.88,1.92-3.99,1.85-6.28Z"/><path class="cls-2" d="m398.17,64.32c1.54-1.72,3.42-2.91,5.62-3.54,8.84-2.57,18.45.44,23.35,9.14,1.61,2.86,2.41,5.98,2.53,9.29.11,3.01-.1,5.95-1.06,8.83-1.58,4.74-4.55,8.36-8.89,10.86-3.09,1.78-6.5,2.48-10.01,2.47-3.79-.02-7.39-.86-10.3-3.54-.2-.18-.45-.31-.73-.5-.23.36-.12.71-.12,1.03,0,5.2-.03,10.41.01,15.61,0,.88-.26,1.11-1.13,1.1-3.98-.04-7.96-.04-11.94,0-.84,0-1.15-.17-1.15-1.08.03-17.46.02-34.92,0-52.38,0-.78.14-1.1,1.03-1.09,3.84.05,7.68.04,11.52,0,.78,0,1.07.2,1.01,1-.07.89-.02,1.79-.02,2.68.09.04.18.08.27.11Zm7.33,25.84c4.75-.05,7.41-1.49,8.93-4.77,1.09-2.36,1.13-4.83.67-7.33-.32-1.75-1.05-3.32-2.34-4.58-1.95-1.9-4.29-2.64-7.01-2.27-2.95.4-5.08,1.92-6.37,4.54-.98,1.99-1.02,4.12-.89,6.3.26,4.24,3.43,8.25,7.01,8.11Z"/><path class="cls-2" d="m271.45,100.77c-2.11,0-4.23-.04-6.34.02-.83.02-1.28-.23-1.6-1.01-2.06-5.15-4.16-10.28-6.24-15.42-2.67-6.59-5.34-13.19-8.02-19.78-.12-.3-.1-.81-.5-.84-.52-.03-.47.54-.59.86-2.97,7.34-5.91,14.69-8.88,22.03-1.79,4.43-3.64,8.84-5.42,13.27-.27.68-.67.87-1.35.87-4.3-.02-8.6-.02-12.89,0-.84,0-1.18-.12-.75-1.06,2.32-5.12,4.57-10.26,6.86-15.4,2.85-6.41,5.7-12.82,8.55-19.23,2.27-5.1,4.58-10.18,6.82-15.29.34-.77.77-1,1.6-.99,4.12.04,8.24.04,12.37,0,.79,0,1.21.27,1.52.98,2.66,6,5.34,11.99,8.01,17.98,2.69,6.02,5.37,12.05,8.06,18.07,1.96,4.4,3.94,8.79,5.91,13.18.06.13.12.25.18.38.54,1.29.48,1.38-.95,1.38-2.11,0-4.23,0-6.34,0Z"/><path class="cls-1" d="m102.77,101.38c-6.93-.11-13.01-2.05-17.79-7.05-3.02-3.15-4.67-6.99-5.12-11.29-.35-3.35-.04-6.64,1.18-9.83,1.28-3.34,3.26-6.16,6.12-8.3,7.52-5.64,15.9-6.35,24.55-3.47,6.42,2.14,11.03,6.52,12.89,13.15,1.78,6.34,1.04,12.41-2.91,17.89-3.55,4.92-8.54,7.47-14.43,8.51-1.53.27-3.08.28-4.48.39Zm-8.66-20.07c.03.91.14,1.81.38,2.69.89,3.24,2.97,5.41,6.28,6.01,3.28.59,6.34-.11,8.42-2.98,2.24-3.11,2.39-6.62,1.35-10.16-1.72-5.86-9.43-7.76-13.82-3.49-2.27,2.21-2.68,4.99-2.61,7.94Z"/><path class="cls-2" d="m332.09,80.92c-.04-6.11,1.92-10.94,6.01-14.82,3.31-3.14,7.33-4.96,11.83-5.76,3.71-.66,7.43-.65,11.09.22,6.22,1.47,11.2,4.65,14.36,10.37,1.69,3.06,2.4,6.33,2.38,9.72-.03,5.1-1.58,9.69-5.17,13.53-3.62,3.88-8.11,5.98-13.28,6.81-4.55.73-9.07.48-13.38-1.11-5.82-2.14-10.23-5.87-12.5-11.79-.95-2.48-1.39-5.03-1.33-7.18Zm14.4-.37c-.05,1.2.07,2.39.39,3.59,1.79,6.59,9.52,7.57,13.59,3.99,1.9-1.67,2.65-3.86,2.84-6.31.26-3.49-.36-6.64-3.24-9.02-2.84-2.34-7.97-2.19-10.7.29-2.23,2.02-3,4.54-2.87,7.46Z"/><path class="cls-1" d="m187.91,84.19c.62,3.07,3.36,5.54,6.63,6.12,4.46.78,8.59.23,12.11-2.86.38-.33.61-.12.86.14,2.24,2.32,4.46,4.65,6.72,6.94.41.41.11.58-.13.82-3.18,3.19-7.1,4.93-11.5,5.62-4.7.73-9.38.56-13.97-.79-9.05-2.66-14.85-9.52-15.13-19.18-.17-5.98,1.87-11.1,6.22-15.19,3.94-3.7,8.77-5.52,14.18-5.87,4.43-.29,8.71.4,12.68,2.35,4.29,2.11,7.39,5.45,9.28,9.83,1.58,3.68,1.84,7.55,1.45,11.49-.05.47-.23.61-.65.58-.25-.01-.49,0-.74,0-8.95,0-17.9,0-26.85,0h-1.16Zm7.91-7.41c2.46,0,4.93-.03,7.39.02.84.02.9-.26.7-.96-1.04-3.65-4.26-6.03-8.14-5.97-3.99.07-7.04,2.37-8.01,5.99-.21.78,0,.95.77.94,2.43-.04,4.86-.01,7.29-.01Z"/><path class="cls-1" d="m37.51,74.72c0-8.31,0-16.63-.02-24.94,0-.74.11-1,.95-.99,4.26.05,8.53.05,12.79,0,.87,0,1.1.18,1.1,1.07-.03,12.65,0,25.29-.05,37.94,0,1.13.33,1.32,1.38,1.32,7.54-.05,15.09,0,22.63-.05.84,0,1.04.23,1.03,1.03-.05,3.28-.04,6.57,0,9.85,0,.63-.14.82-.81.82-12.72-.02-25.45-.03-38.17,0-.88,0-.83-.41-.83-1.01.01-8.35,0-16.7,0-25.05Z"/><path class="cls-1" d="m125.54,60.54c4.75,0,9.36,0,13.97-.01.49,0,.68.21.83.6,2.49,6.31,4.99,12.62,7.49,18.93.62,1.57,1.25,3.15,1.98,5,.79-1.9,1.47-3.54,2.15-5.17,2.61-6.25,5.21-12.5,7.82-18.74.13-.31.24-.61.72-.61,4.32.02,8.64.01,13.09.01-1.23,2.96-2.41,5.8-3.59,8.65-2.43,5.83-4.85,11.66-7.29,17.49-1.87,4.49-3.77,8.96-5.62,13.45-.2.47-.41.63-.91.63-4.44-.02-8.88-.03-13.32.02-.69,0-.83-.38-1-.8-1.36-3.27-2.71-6.56-4.07-9.83-3.09-7.42-6.18-14.83-9.26-22.25-1-2.4-1.96-4.82-2.99-7.35Z"/><path class="cls-2" d="m438.07,81.09c0-2.85-.03-5.19.02-7.53.02-.79-.16-1.13-1.05-1.08-1.33.07-2.68,0-4.02.03-.6.01-.89-.12-.89-.8.03-2.97.03-5.94,0-8.91,0-.69.29-.81.89-.8,1.37.03,2.75-.03,4.12.02.77.03.95-.26.94-.97-.03-2.83,0-5.66-.03-8.49,0-.73.12-1.06.97-1.05,4.09.04,8.18.04,12.26,0,.84,0,.99.3.98,1.04-.04,2.76.03,5.52-.04,8.28-.03,1.01.32,1.21,1.25,1.19,2.36-.06,4.72,0,7.08-.03.69,0,1.01.12,1,.91-.04,2.9-.04,5.8,0,8.7.01.78-.3.92-.99.91-2.43-.03-4.86.01-7.29-.03-.76-.01-1.05.16-1.04.98.04,4.23,0,8.45.03,12.68.02,3.06,2.18,4.83,5.23,4.32.9-.15,1.81-.31,2.6-.79.55-.34.85-.22,1.08.43.94,2.74,1.9,5.46,2.92,8.17.27.71.01.99-.59,1.27-2.16,1.01-4.42,1.51-6.79,1.72-3.34.3-6.61.04-9.75-1.08-5.25-1.87-8.05-5.65-8.69-11.12-.33-2.82-.07-5.65-.19-7.96Z"/></svg>